<?xml version="1.0" encoding="UTF-8"?>
<svg id="Layer_2" data-name="Layer 2" xmlns="http://www.w3.org/2000/svg" xmlns:xlink="http://www.w3.org/1999/xlink" viewBox="0 0 63.31 83.24">
  <defs>
    <style>
      .cls-1 {
        fill: url(#Degradado_sin_nombre_37-4);
      }

      .cls-2 {
        fill: url(#Degradado_sin_nombre_37-2);
      }

      .cls-3 {
        fill: url(#Degradado_sin_nombre_37-3);
      }

      .cls-4 {
        fill: url(#Degradado_sin_nombre_37);
      }
    </style>
    <linearGradient id="Degradado_sin_nombre_37" data-name="Degradado sin nombre 37" x1="-30.73" y1="3.35" x2="109.67" y2="141.26" gradientUnits="userSpaceOnUse">
      <stop offset=".17" stop-color="#310000"/>
      <stop offset=".45" stop-color="#800020"/>
    </linearGradient>
    <linearGradient id="Degradado_sin_nombre_37-2" data-name="Degradado sin nombre 37" x1="-10.31" y1="-17.44" x2="130.09" y2="120.48" xlink:href="#Degradado_sin_nombre_37"/>
    <linearGradient id="Degradado_sin_nombre_37-3" data-name="Degradado sin nombre 37" x1="-15.56" y1="-12.09" x2="124.84" y2="125.83" xlink:href="#Degradado_sin_nombre_37"/>
    <linearGradient id="Degradado_sin_nombre_37-4" data-name="Degradado sin nombre 37" x1="-38.29" y1="11.05" x2="102.11" y2="148.97" xlink:href="#Degradado_sin_nombre_37"/>
  </defs>
  <g id="Iconos">
    <g>
      <path class="cls-4" d="m59.3,83.24h-19.02c0-.35,0-.67,0-.99,0-3.3.01-6.59,0-9.89-.02-4.57-3.39-8.12-8.05-8.49-4.38-.34-8.37,2.75-9.1,7.06-.09.51-.1,1.03-.1,1.55,0,3.24,0,6.47,0,9.71,0,.33,0,.65,0,1.03H4.06c-.02-.33-.04-.63-.04-.93,0-5.83,0-11.66-.02-17.49,0-.63.22-.99.7-1.35,4.13-3.1,8.23-6.22,12.36-9.31.52-.39.7-.8.7-1.44-.02-6.44,0-12.88-.03-19.32,0-.6.15-1,.65-1.38,4.25-3.18,8.49-6.38,12.71-9.61.46-.35.75-.3,1.18.02,4.2,3.2,8.41,6.38,12.63,9.55.52.39.71.79.7,1.44-.03,6.38,0,12.76-.04,19.14,0,.8.26,1.27.88,1.73,4.06,3.03,8.08,6.11,12.14,9.14.55.41.75.83.74,1.51-.03,5.77-.02,11.54-.02,17.31,0,.3,0,.6,0,1.01Zm-23.22-31.99c0-.44,0-.77,0-1.1,0-3.72-.11-7.44.04-11.15.11-2.65-1.02-4.51-3.06-5.95-1.68-1.2-1.11-1.21-2.83.01-2.04,1.45-3.14,3.32-3.04,5.96.15,3.74.04,7.49.04,11.24,0,.32,0,.64,0,.99h8.85Z"/>
      <path class="cls-2" d="m29.77,18.16c-.47-1.25-.27-2.26.83-3.02.14-.1.22-.37.22-.56.01-2.84,0-5.67,0-8.62h-3.55v-1.64h3.52V0h1.66v4.29h3.56v1.64h-3.49c-.02.36-.05.65-.05.95,0,2.47-.01,4.95,0,7.42,0,.3.07.73.28.89,1.05.78,1.23,1.76.77,2.98,2.45,1.86,4.9,3.72,7.36,5.58,2.51,1.9,5.02,3.79,7.52,5.69.86.65,1.06,1.22.64,1.82-.44.64-1.14.66-1.99.01-4.9-3.7-9.8-7.39-14.67-11.11-.56-.43-.9-.45-1.48-.01-4.83,3.69-9.68,7.34-14.53,11-.19.15-.38.31-.6.43-.59.34-1.15.23-1.54-.3-.4-.55-.29-1.12.25-1.53,1.13-.88,2.28-1.74,3.43-2.6,3.92-2.96,7.84-5.93,11.83-8.95Z"/>
      <path class="cls-3" d="m47.11,49.86c3.25,2.45,6.31,4.77,9.38,7.09,2.04,1.55,4.09,3.09,6.13,4.64.77.59.9,1.21.42,1.78-.47.55-1.11.55-1.87-.02-2.07-1.56-4.14-3.13-6.2-4.69-2.29-1.73-4.56-3.48-6.88-5.17-.71-.52-1.11-1.05-.98-1.96.07-.47.01-.96.01-1.67Z"/>
      <path class="cls-1" d="m16.06,50.03c.62,1.97-.22,3.09-1.73,4.17-4.06,2.91-8.01,6-12,9.01-.12.09-.24.19-.37.27-.62.42-1.23.44-1.7-.17-.49-.63-.26-1.2.34-1.65,1.51-1.14,3.02-2.28,4.52-3.42,3.45-2.61,6.91-5.22,10.37-7.83.19-.14.39-.26.57-.38Z"/>
    </g>
  </g>
</svg>