<?xml version="1.0" encoding="UTF-8"?>
<svg id="Layer_2" data-name="Layer 2" xmlns="http://www.w3.org/2000/svg" xmlns:xlink="http://www.w3.org/1999/xlink" viewBox="0 0 97.81 82.39">
  <defs>
    <style>
      .cls-1 {
        fill: url(#Degradado_sin_nombre_26-2);
      }

      .cls-2 {
        fill: url(#Degradado_sin_nombre_26);
      }
    </style>
    <linearGradient id="Degradado_sin_nombre_26" data-name="Degradado sin nombre 26" x1="-12.89" y1="41.6" x2="91.04" y2="49.54" gradientUnits="userSpaceOnUse">
      <stop offset=".07" stop-color="#7e4d22"/>
      <stop offset=".31" stop-color="#cd9e32"/>
      <stop offset=".53" stop-color="#f7f28e"/>
      <stop offset=".61" stop-color="#e5d16e"/>
      <stop offset=".71" stop-color="#d0a746"/>
      <stop offset=".77" stop-color="#c89837"/>
      <stop offset=".97" stop-color="#7c5021"/>
    </linearGradient>
    <linearGradient id="Degradado_sin_nombre_26-2" data-name="Degradado sin nombre 26" x1="-12.41" y1="35.37" x2="91.51" y2="43.31" xlink:href="#Degradado_sin_nombre_26"/>
  </defs>
  <g id="Letra">
    <g>
      <path class="cls-2" d="m11.21,70.38V20.06c0-2.11-.26-3.68-.79-4.71-.53-1.03-1.39-1.66-2.58-1.87-.74-.11-1.88-.23-3.42-.37-.35-.03-.6-.05-.74-.05-1.54-.07-2.54-.19-3-.37-.46-.18-.68-.46-.68-.84.03-.67,1.28-1.12,3.74-1.37,1.47-.14,2.72-.28,3.74-.42,4.42-.67,8.46-1.91,12.11-3.74.63-.32,1.02-.47,1.16-.47s.26.17.37.5c.11.33.16.78.16,1.34,0,.11-.02.51-.05,1.21-.25,3.93-.37,7.9-.37,11.9v49.27c0,2.77.35,4.73,1.05,5.87.7,1.14,2,1.92,3.9,2.34.6.11,1.46.23,2.58.37.25.04.42.05.53.05h.11c1.9.25,2.84.72,2.84,1.42,0,.35-.18.6-.55.74s-.97.21-1.82.21c-.18,0-.61-.02-1.32-.05-4.14-.25-8.39-.37-12.74-.37-3.72,0-7.55.12-11.48.37-.77.03-1.25.05-1.42.05-.84,0-1.43-.07-1.76-.21-.33-.14-.5-.39-.5-.74,0-.7.93-1.18,2.79-1.42h.11c.11,0,.28-.02.53-.05,1.12-.14,2-.26,2.63-.37,1.79-.35,3.05-1.11,3.79-2.26.74-1.16,1.11-3.04,1.11-5.63Z"/>
      <path class="cls-1" d="m92.07,17.37h-28.27c-2.28,0-3.99.44-5.13,1.32-1.14.88-2.18,2.67-3.13,5.37-.32.88-.65,2-1,3.37-.49,1.93-1.09,2.9-1.79,2.9-.42,0-.75-.15-.97-.45-.23-.3-.34-.69-.34-1.18,0-.21,0-.38.03-.5.02-.12.04-.25.08-.4L56.91,1.74c.1-.53.28-.95.53-1.26.24-.32.54-.47.9-.47.39,0,.68.15.89.45.21.3.32.69.32,1.18,0,.28-.06.81-.18,1.58-.12.77-.18,1.39-.18,1.84,0,1.33.26,2.25.79,2.74.53.49,1.74.74,3.63.74h32.37c.56,0,1.01.07,1.34.21.33.14.5.32.5.53,0,.42-.72,2.19-2.16,5.32-6.88,15.2-12.32,30.6-16.32,46.22-.49,2-1.11,4.7-1.84,8.11-1.97,8.98-4.65,13.48-8.05,13.48-1.51,0-2.68-.46-3.5-1.37s-1.24-2.18-1.24-3.79c0-2.74,1.9-8.29,5.69-16.66,3.79-8.37,11.02-22.77,21.69-43.19Z"/>
    </g>
  </g>
</svg>