<?xml version="1.0" encoding="UTF-8"?>
<svg id="Layer_2" data-name="Layer 2" xmlns="http://www.w3.org/2000/svg" xmlns:xlink="http://www.w3.org/1999/xlink" viewBox="0 0 60.96 77.71">
  <defs>
    <style>
      .cls-1 {
        fill: #fff;
      }

      .cls-2 {
        fill: url(#Degradado_sin_nombre_37-2);
      }

      .cls-3 {
        fill: url(#Degradado_sin_nombre_37-3);
      }

      .cls-4 {
        fill: url(#Degradado_sin_nombre_37);
      }
    </style>
    <linearGradient id="Degradado_sin_nombre_37" data-name="Degradado sin nombre 37" x1="28.78" y1="5.84" x2="98.87" y2="174.81" gradientUnits="userSpaceOnUse">
      <stop offset=".17" stop-color="#310000"/>
      <stop offset=".45" stop-color="#800020"/>
    </linearGradient>
    <linearGradient id="Degradado_sin_nombre_37-2" data-name="Degradado sin nombre 37" x1="-2.14" y1="43.02" x2="115.38" y2="56.13" xlink:href="#Degradado_sin_nombre_37"/>
    <linearGradient id="Degradado_sin_nombre_37-3" data-name="Degradado sin nombre 37" x1="2.1" y1="5.07" x2="119.61" y2="18.17" xlink:href="#Degradado_sin_nombre_37"/>
  </defs>
  <g id="Iconos">
    <g>
      <path class="cls-4" d="m59.48,74.72c-.19.7,1.36,1.62,1.26,2.05-.09.42-.41.6-.81.67-1.81.31-3.62.36-5.42-.09-.73-.18-1.46-.38-2.2-.55-.17-.04-.35-.02-.52,0-.83.11-1.67.23-2.5.36-.28.05-.56.14-.83.23-.39.14-.76.17-1.13.1-.24-.04-.48-.13-.72-.25-.09-.05-.23-.05-.33-.02-.94.31-1.91.24-2.87.13-.72-.08-1.03-.67-.83-1.47.01-.04.03-.09.07-.2-.41.37-.73.74-1.12,1-.55.36-1.13.69-1.73.94-.58.23-1.02-.14-1.18-.75-.06-.23-.37-.49-.61-.55-.85-.24-1.76-.33-2.59-.63-.51-.18-.97-.59-1.36-.99-.31-.31-.11-.81.27-1.13.48-.4,1.73-.7,2.09-2.36.34-20.91,1.53-30.04,5.6-39.03.02-.04.03-.09.06-.18-.46-.26-.91-.52-1.37-.76-.47-.24-.96-.43-1.42-.69-.17-.09-.32-.26-.4-.44-.34-.77-.67-1.53-.67-2.41,0-.85-.07-1.7-.13-2.55-.06-.79-.17-1.58-.22-2.37-.12-1.64-.15-3.28.18-4.9.03-.13.05-.26.04-.39-.04-.78.35-1.3.99-1.68.64-.38,1.28-.76,1.93-1.15-.45-.65-.72-1.32-.61-2.11.09-.64.38-1.16.84-1.59.06-.06.13-.11.2-.16.38-.26.55-.56.42-1.06-.21-.79-.05-1.56.31-2.28.26-.53.5-1.1.9-1.5.41-.4.67-.84.92-1.34.53-1.06,1.46-1.72,2.5-2.2.22-.1.46-.14.7-.13s.48.08.7.18c.44.21.89.25,1.36.28.5.03.82.33,1.07.71.42.66.89,1.3,1.21,2.01.26.58.62,1.06.98,1.56.58.8.76,1.71.34,2.66-.1.22-.16.46-.3.65-.4.55-.16.99.2,1.41.45.52.85,1.07.88,1.78.02.49-.06.99-.09,1.5.38.14.83.29,1.28.47.38.16.61.46.81.83,1.07,1.97,1.32,4.18,1.87,6.3.37,1.43.7,2.87,1.04,4.31.16.67.28,1.34.43,2.01.2.89-.22,1.56-.82,2.12-.69.64-1.42,1.24-2.14,1.83-.22.18-.28.33-.18.61,2.65,5.91,3.96,12.38,4.05,13.21,2.58,17.26-.2,27.36-.39,27.97Zm-5.75-51.74c-.19.73-.59,1.27-1.15,1.69-.04.03-.08.1-.08.15,0,.71-.07,1.44.06,2.12.16.84.39,1.68,1.06,2.31.29.27.51.62.77.94.46-.42.9-.8,1.32-1.2.06-.06.09-.19.08-.28-.04-.21-.1-.42-.17-.62-.62-1.69-1.24-3.38-1.88-5.12Zm-12.1,2.19c-.05,0-.1.01-.15.02.09.67.15,1.35.26,2.02.09.53.27.67.91.75-.35-.95-.69-1.87-1.02-2.79Z"/>
      <path class="cls-1" d="m41.63,25.17c.34.92.67,1.84,1.02,2.79-.63-.08-.82-.22-.91-.75-.11-.67-.18-1.35-.26-2.02.05,0,.1-.01.15-.02Z"/>
    </g>
    <g>
      <path class="cls-2" d="m13.12,43.6c-.13.5-.3.98-.34,1.5-.04.68-.25,1.34-.33,2.02-.11.94-.15,1.88-.26,2.82-.15,1.26-.36,2.51-.54,3.76-.09.6-.15,1.21-.23,1.81-.03.23-.03.47-.13.67-.31.68-.4,1.42-.46,2.14-.18,2.51-.48,5.02-.31,7.55.07,1,.06,2.01.39,2.98.26.77.28,1.55-.02,2.33-.42,1.08-.68,2.22-1.15,3.26-.33.72-.7,1.41-.91,2.19-.18.66-.73.96-1.38,1.03-.35.04-.7.01-1.05.04-1.28.09-1.82-.93-1.44-2.1.12-.37.33-.69.57-.99.45-.55.51-1.15.3-1.81-.15-.48-.34-.94-.38-1.46-.05-.68.28-1.24.48-1.84.12-.37.21-.74.2-1.12-.05-1.16,0-2.32-.14-3.48-.29-2.28-.34-4.58-.14-6.86.1-1.15.25-2.3.24-3.46,0-.62-.14-1.21-.2-1.81-.18-1.64-.32-3.27-.51-4.91-.21-1.82-.44-3.63-.4-5.48.03-1.19-.54-2.24-1.05-3.28-.06-.13-.13-.28-.35-.21-.11.04-.21-.05-.27-.14-.25-.41-.66-.62-1.06-.84-.34-.19-.34-.6-.52-.89-.31-.48-.52-1-.25-1.59.13-.29.07-.58-.1-.86-.43-.7-.71-1.44-.59-2.3.11-.79-.17-1.53-.45-2.22-.45-1.12-.37-2.23-.17-3.37.38-2.07.88-4.12,1.53-6.12.38-1.18.72-2.39,1.21-3.55.27-.63.31-1.36.58-2.01.08-.2.16-.4.24-.59.16-.37.42-.54.82-.68,1.7-.61,3.51-.94,5.12-1.82.21-.11.37-.26.49-.46.09-.16.21-.29.39-.41-.18,2.42-.19,4.81-.05,7.2.12,2.07.35,4.14.41,6.22.08,2.5.17,5.01-.05,7.52-.03.37.07.47.44.46.93-.02.93,0,.93-.93-.02-3.3-.07-6.61-.05-9.91.01-1.6-.05-3.21.23-4.8.09-.5.26-.96.5-1.41.36-.67.34-.76-.24-1.19-.31-.23-.3-.42-.06-.68.3-.33.49-.8,1.08-.62.33.1.5.38.73.59.33.3.18.58-.05.83-.16.18-.08.34-.01.51.26.62.58,1.21.73,1.88.21.97.27,1.97.35,2.95.24,2.91.3,5.83.5,8.74.08,1.25.26,2.49.39,3.74.03.25.1.32.37.29.92-.13.94-.11.86-1-.36-4.28-.46-8.57-.57-12.86-.06-2.4-.17-4.82-.65-7.23.33.49.78.79,1.3,1.06,1.25.64,2.63.89,3.93,1.36.39.14.8.21,1.18.35.33.12.52.41.59.72.4,1.9,1.14,3.71,1.46,5.62.24,1.44.32,2.91.56,4.35.2,1.19.2,2.4.42,3.59.04.23.02.48-.04.72-.21.81-.38,1.63-.56,2.44-.03.13-.04.28-.11.4-.61,1.02-.58,2.19-.7,3.31-.05.49.05,1,0,1.5-.03.33-.08.65-.23.95-.04.08-.08.17-.08.26.01.88-.61,1.3-1.24,1.7-.39.25-.8.45-1.26.52-.31.05-.42.2-.5.49-.31,1.1-.3,2.23-.47,3.35-.28,1.87-.33,3.77-.56,5.64-.3,2.48-.3,4.97-.16,7.45.07,1.14.18,2.31.37,3.45.26,1.51.17,3.04.19,4.57.01,1.83-.09,3.66-.22,5.49-.03.37-.05.73-.12,1.09-.2,1.05.31,1.85.97,2.54.63.65.82,1.49,1.16,2.26.09.21-.03.36-.21.44-.9.4-1.87.59-2.81.39-.66-.14-1.08-.76-1.43-1.34-.1-.17-.19-.35-.31-.51-.14-.2-.27-.32-.59-.29-.62.06-1-.36-1-1.02,0-.44-.07-.89-.32-1.22-.73-1.01-.75-2.05-.17-3.1.5-.9.36-1.84.26-2.77-.08-.71-.2-1.42-.2-2.14,0-.98-.19-1.94-.31-2.9-.11-.84-.11-1.71-.04-2.56.09-1.21-.17-2.36-.3-3.54-.19-1.76-.7-3.46-.78-5.25-.04-.96-.02-1.94-.18-2.87-.16-.94-.17-1.91-.47-2.82-.15-.45-.29-.9-.26-1.4Zm-8.39-13.48c.42-1.55.6-3.14.75-4.74-.38,1.56-.29,3.19-.75,4.74Z"/>
      <path class="cls-3" d="m10.89,10.05c.05-.63-.09-1.24-.26-1.85-.04-.14-.04-.31-.25-.34-.45-.07-.67-.39-.81-.78-.14-.37-.29-.74-.28-1.15,0-.16.02-.35.15-.41.35-.18.31-.48.3-.78,0-.55.04-1.1-.08-1.64-.06-.29.1-.56.1-.86,0-.25-.26-.51.01-.76.48-.45.83-1.04,1.52-1.25.21-.06.44-.13.63-.06.46.17.88.17,1.28-.13.05-.04.17-.05.22-.02.58.36,1.22.06,1.82.15.19.03.34.03.47.21.2.28.67.17.82.56.24.61.42,1.23.47,1.87.05.68.04,1.36.07,2.04.01.24.13.43.28.64.34.46.22,1.03.12,1.54-.09.42-.24.88-.79.95-.16.02-.19.15-.21.26-.11.86-.64,1.62-.54,2.53.03.32-.19.55-.42.72-.52.38-1.04.75-1.57,1.11-.26.18-.53.13-.78-.01-.53-.3-1.04-.64-1.59-.91-.7-.36-.78-.95-.7-1.63Z"/>
    </g>
  </g>
</svg>