<?xml version="1.0" encoding="UTF-8"?>
<svg id="Layer_2" data-name="Layer 2" xmlns="http://www.w3.org/2000/svg" viewBox="0 0 146.14 179.04">
  <defs>
    <style>
      .cls-1 {
        fill: none;
        stroke: #9ac8db;
        stroke-miterlimit: 10;
      }
    </style>
  </defs>
  <g id="Capa_6" data-name="Capa 6">
    <g>
      <path class="cls-1" d="m121.08,79.82c-5.2-3.77-10.77-5.16-16.78-5.2-5.44-.04-10.89.71-15.21,4.31-4.32-1.7-8.61-3.45-12.53-6.21-.59-.41-1.13.55-.54.97,5.02,3.53,10.61,5.41,16.1,7.65.44.18.87.37,1.31.56,3.29,3.94,5.69,8.78,9.11,12.64,3.74,4.23,8.09,7.82,12.82,10.55,9.12,5.26,19.38,6.03,28.69,10.55.1.19.2.39.3.58.27.51.88.33.98-.08.37-.13.46-.87-.03-1.13-.17-.09-.35-.17-.52-.25-6.41-12.4-12.53-26.83-23.7-34.93Zm-5.18,24.3c-4.78-2.75-9.18-6.39-12.93-10.71-2.82-3.25-4.94-7.17-7.51-10.64,4.8,2.09,9.52,4.43,14.12,7.04,10.87,6.16,21.09,13.71,30.5,22.41.53.49,1.07-.48.54-.97-9.41-8.7-19.63-16.25-30.5-22.41-5.04-2.86-10.21-5.42-15.48-7.66-.22-.09-.44-.18-.66-.27-.52-.62-1.07-1.22-1.65-1.78-.52-.5-1.29.25-.76.76.02.02.04.05.06.07-.43-.17-.87-.34-1.3-.51,4.5-3.43,10.31-3.84,15.79-3.61,6.08.26,11.59,2.44,16.53,6.64,9.32,7.94,14.85,20.38,20.53,31.53-8.92-4.02-18.64-4.9-27.3-9.88Z"/>
      <path class="cls-1" d="m36.23,129.63c.13.38.24.77.37,1.15.25.71,1.17.21.93-.49.12.06.25.1.37.15.04,1.23.16,2.48.44,3.77.16.74,1.19.53,1.03-.21-.23-1.06-.36-2.1-.41-3.13.18.07.35.15.53.22.66.23.95-.87.29-1.1-.29-.1-.56-.24-.85-.35.06-5.8,2.57-11.13,4.83-16.25,2.56-5.81,4.4-11.64,3.79-18.35-1.28-14.18-10.49-25.43-19.12-35.55-2.37-13.16-6.45-25.95-12.26-38.02,15.27,14.77,34.57,24.93,49.09,40.71.39.43.75.87,1.14,1.3-.06.14-.06.3.03.48,1.94,3.89,1.9,8.34,2.03,12.57.13,4.15.13,8.3.1,12.45-.02,2.52-.05,5.04-.08,7.57-.02,0-.05,0-.07.01-11.98,5.31-12.81,21.93-10.03,34.41,2.55,11.43,9.84,22.39,20.4,25.09.2.34.55.35.78.19.21.04.41.11.62.15.19.55.39,1.1.63,1.64.3.69,1.23.19.93-.5-.14-.33-.26-.67-.38-1,.39.05.78.12,1.18.14.68.04.71-1.12.02-1.16-.55-.03-1.09-.12-1.63-.19-2.69-8.66-.22-18.22-1.13-27.08-1-9.86-4.47-19.33-9.85-27.51-.13-.2-.3-.25-.45-.21.04-5.27.13-10.53.13-15.79,0-5.93.65-13.25-1.4-19.16,13.17,15.57,21.97,34.56,31.01,53.25-2.3,12.05.21,25.16,6.72,35.74,8.14,13.25,21.27,18.92,34.36,23.68.04.01.07,0,.11.01.03.03.05.07.08.1.5.53,1.27-.22.76-.76-2.85-3.04-3.47-7.16-3.99-11.21-.42-3.3-.93-6.54-1.82-9.76-1.64-5.98-4.22-11.67-7.52-16.82-6.73-10.49-16.39-18.56-27.36-22.49-.09-.45-.67-.66-.92-.32-.07-.02-.13-.02-.19-.02-2.5-5.16-4.97-10.31-7.5-15.35-6.43-12.79-13.46-25.42-22.5-36.28-9.28-11.14-20.68-19.52-31.94-27.9-1.55-1.15-3.1-2.32-4.65-3.49,8.01-.05,16.08-.35,24.14-.3-.03.15,0,.32.14.48,7.26,8.41,15.57,15.66,26.21,16.54,9.46.78,18.53-2.63,27.16-5.96.06-.02.1-.06.14-.09.07.05.14.1.21.15.59.41,1.13-.55.54-.97-5.15-3.64-10.3-7.27-15.45-10.91-4.66-3.29-9.45-7.57-14.8-9.19-9.85-2.98-19.02,2.56-26.89,7.83-.32.22-.29.65-.1.92-7.3.03-14.6.3-21.83.34-.25,0-.42.17-.48.37-6.04-4.61-11.97-9.46-17.32-14.96-.02-.02-.03-.04-.05-.05C9.51,13.05,5.05,7.38,1.51.81c-.35-.66-1.29-.16-.93.5,3.67,6.81,8.21,12.62,13.28,17.83,6.31,12.42,10.66,25.54,13.24,39.09-4.8,13.4-9.72,27.49-8.15,42.52,1.24,11.87,7.26,23.62,17.29,28.88Zm23.18,1.13c-2.64-11.81-2.03-27.59,9.06-32.92-.05,5.34-.07,10.67.14,16.02.56,14.01,2.85,28.31,9.43,40.82-9.66-2.98-16.26-13.28-18.64-23.93Zm19.63,1.36c.27,7.66-1.34,15.51.76,23-.12-.03-.25-.06-.37-.09-7.56-13.86-9.57-29.87-9.88-45.42-.05-2.55-.06-5.09-.05-7.63,5.74,8.91,9.16,19.44,9.54,30.13Zm28.04,22.24c-6.27-10-8.89-22.37-7.04-33.9,3.13,6.45,6.31,12.86,9.73,19.06,7.68,13.93,16.78,27.01,28.75,36.84.02.01.03.01.05.02-11.99-4.46-23.92-9.97-31.48-22.03Zm31.71,22.11c.09,0,.17-.02.25-.07.04.07.09.14.13.21-.13-.05-.25-.09-.38-.14Zm-10.31-33.77c3.23,5.55,5.62,11.68,6.89,18.04.9,4.51.89,9.6,2.71,13.83-17.09-14.5-27.72-35.15-37.74-55.79.02-.11.04-.21.06-.32,11.48,4.15,21.49,12.92,28.07,24.23ZM58.18,33.68c4.37.05,8.74.19,13.1.56,11.91.99,23.57,4.81,34.3,11.12-6.88,2.53-14.03,4.66-21.42,4.23-10.57-.61-18.76-7.6-25.98-15.9Zm24.25-8.31c5.07,2.08,9.76,6.22,14.32,9.44,4.27,3.01,8.54,6.03,12.8,9.04-.87.33-1.74.67-2.61,1-10.51-6.34-21.98-10.35-33.7-11.6-6.06-.64-12.16-.81-18.26-.79,7.95-5.31,17.57-11.14,27.44-7.09Zm-35.79,73.09c-.2,11.09-8.51,19.88-8.76,30.74-.28-.13-.55-.26-.82-.39-5.86-17.94-5.13-36.92-6.75-55.42-.35-3.97-.86-7.92-1.51-11.83,8.77,10.34,18.11,22.33,17.84,36.9Zm-26.87-.53c-.68-13.26,3.45-25.64,7.7-37.55.97,5.52,1.67,11.11,2.08,16.75,1.23,17.05,1.04,34.43,6.18,50.97-9.95-5.75-15.35-18.15-15.96-30.17Z"/>
    </g>
  </g>
</svg>