<?xml version="1.0" encoding="UTF-8"?>
<svg id="Layer_2" data-name="Layer 2" xmlns="http://www.w3.org/2000/svg" viewBox="0 0 90.92 112.25">
  <defs>
    <style>
      .cls-1 {
        fill: #9ac4db;
      }
    </style>
  </defs>
  <g id="Capa_6" data-name="Capa 6">
    <path class="cls-1" d="m83.98.42c-2.73,1.22-4.86,4.19-6.7,6.43-2.34,2.83-4.46,5.86-6.34,9.02-4.44,7.48-7.45,15.73-9.02,24.36-.26.35-.54.68-.81,1.02-.77.4-1.54.8-2.33,1.18-.64.3-.24,1.36.4,1.06.09-.04.18-.09.27-.13-4.29,5.42-8.82,10.63-13.57,15.63.64-3.3,1.19-6.61,1.63-9.94.2.02.39-.08.47-.34,1.16-3.91,4.03-6.65,6.08-10.04,1.86-3.06,2.94-6.58,3.16-10.2.47-7.7-3.33-15.68-9.11-20.85-1.76-1.58-3.98-1.68-5.41.33-1.94,2.74-.97,8-.79,11.11.52,9.09,2.2,18.08,4.85,26.82-.56,4.89-1.33,9.76-2.32,14.58-6.46,6.66-13.3,12.93-20.53,18.75.56-3.42.92-6.91,1.12-10.41,4.27-4.45,7.12-10.41,7.06-16.76-.05-5.37-2.91-13.11-9.13-13.84-5.94-.7-6.63,6.29-6.34,10.72.42,6.4,3.36,12.39,6.96,17.63.11.17.26.23.41.23-.02.51-.04,1.03-.07,1.54-.07.07-.14.15-.21.22-.28.28-.13.61.14.77-.23,3.67-.6,7.33-1.25,10.91-7.13,5.67-14.59,10.93-22.38,15.7-.61.37.06,1.29.67.92,4.17-2.56,8.25-5.25,12.24-8.07.17.23.48.36.77.15,4.33-3.17,10.19-3.87,15.33-4.99,3.68-.8,7.38-1.53,11.11-2.09.08.08.17.14.32.15,7.91.6,11.1,7.06,11.88,13.93-3.06,1.14-6.53,2.85-6.72,6.57-.16,3.15,1.09,8.52,4.58,9.56,3.51,1.05,5.82-2.83,6.53-5.67,1-3.97-.01-8.16-2.51-11.43-.19-.25-.45-.26-.67-.17-.31-2.13-.92-4.22-1.97-6.17-1.81-3.38-4.74-6.07-8.3-7.18.5-.06.99-.13,1.49-.19,9.68-1.01,19.6-.39,28.75,3.53.67.28,1.11-.74.44-1.02-2.08-.89-4.21-1.59-6.36-2.17,2.37-1.14,4.99-1.86,7.67-1.37,3.78.69,8.78,5.07,5.98,9.29-1.62,2.44-5.28,3.15-7.98,2.5-3.89-.93-6.29-4.77-6.21-8.61.02-.71-1.09-.91-1.1-.19-.09,4.04,2.03,7.98,5.92,9.52,3.44,1.36,8.03.56,10.26-2.5,2.36-3.25.16-7.56-2.89-9.59-3.92-2.62-8.71-1.84-12.59.15-.2.1-.29.29-.3.47-7.1-1.71-14.47-1.89-21.71-1.13-5.82.61-11.56,1.76-17.25,3.02-3.51.78-7.2,1.39-10.54,2.76,2-1.48,3.97-2.98,5.92-4.53.28.05.59-.08.66-.43,0-.03,0-.06.02-.1,3.9-3.11,7.7-6.35,11.38-9.71.17.23.48.37.78.18,5.56-3.61,12.01-4.86,18.43-6.22.2.3.62.43.86.06.06-.1.13-.19.19-.28.21-.04.41-.09.62-.14,3.11,3.01,6.66,5.27,11.2,4.37,4.36-.86,8.37-5.01,8.19-9.72-.17-4.32-4.31-5.22-7.78-4.51-4.87,1-9.1,3.91-12.08,7.81-.03-.04-.07-.07-.1-.1-.5-.53-1.18.35-.69.87.05.05.1.1.15.15-.07.1-.14.19-.2.29-6,1.3-12.05,2.41-17.44,5.32,2.47-2.31,4.87-4.68,7.23-7.09.29.22.82.16.92-.31.06-.27.1-.54.16-.8,5.78-5.98,11.24-12.28,16.35-18.86,6.04-3.2,11.52-7.33,16.23-12.32,5.08-5.38,10.18-12.27,12.28-19.54.73-2.54.97-5.45-.48-7.85-1.32-2.17-3.58-3.07-5.87-2.04Zm-40.5,24.06c-.36-3.33-.57-6.68-.62-10.03-.02-.95-.06-1.91.02-2.86-.02-.86.13-1.68.45-2.48,1.28-.29,2.56-.58,3.83-.87,1.43.61,3.1,3.46,4,4.69,4.19,5.72,6.05,12.53,4.34,19.41-1.31,5.26-5.36,8.83-7.6,13.48,0,0,0,0,0,0,.8-7.13,1.17-14.32,1.06-21.53-.01-.72-1.12-.62-1.11.1.09,6.22-.17,12.43-.76,18.59-1.7-6.06-2.94-12.23-3.61-18.48Zm-18.2,38.22c.09-5.33-.45-10.61-2.36-15.66-.26-.68-1.3-.3-1.04.38,2.07,5.47,2.46,11.2,2.24,16.94-.01.31-.03.62-.04.92-2.62-3.92-4.81-8.19-5.82-12.8-.94-4.31-1.5-15.11,5.67-12.88,5.93,1.85,7.56,9.78,6.9,15.09-.58,4.65-2.69,8.88-5.69,12.34.07-1.45.11-2.9.14-4.34Zm30.91,40.47c.01,1.46-.21,2.94-.76,4.29-.81,2-2.06,3.66-4.37,3.25-3.09-.54-4.07-4.73-4.12-7.55-.07-3.46,2.92-5,5.72-6.06.22,2.96.03,5.95-.4,8.53-.12.71.98.9,1.1.19.52-3.12.83-6.42.55-9.64,1.44,2.09,2.26,4.43,2.28,6.98Zm7.39-45.73c3.36-1.6,11.59-3.68,10.5,3.2-.68,4.33-4.57,7.45-8.84,7.57-3.26.09-5.8-1.62-8.05-3.73,3.41-.77,6.77-1.69,9.95-3.11.65-.29.25-1.35-.4-1.06-3.35,1.5-6.9,2.44-10.49,3.25,0,0,0,0-.01-.01,1.94-2.58,4.39-4.7,7.34-6.1ZM89.36,4c1.56,3.95-.86,8.48-2.64,11.85-2.04,3.87-4.52,7.51-7.34,10.83-4.49,5.29-9.84,9.72-15.79,13.2,7.5-9.94,14.23-20.5,20.05-31.6.33-.63-.7-1.1-1.03-.47-5.58,10.64-12,20.76-19.14,30.33,1.52-7.1,4.04-13.93,7.59-20.23,2.06-3.66,4.43-7.13,7.1-10.35,2.24-2.71,8.4-10.66,11.2-3.57Z"/>
  </g>
</svg>