<?xml version="1.0" encoding="UTF-8"?>
<svg id="Layer_2" data-name="Layer 2" xmlns="http://www.w3.org/2000/svg" viewBox="0 0 169.64 226.44">
  <defs>
    <style>
      .cls-1 {
        fill: #9ac8db;
        opacity: .5;
      }
    </style>
  </defs>
  <g id="Capa_6" data-name="Capa 6">
    <path class="cls-1" d="m67.52,27.23c.11.09.23.14.35.18.84,10.75,4.15,20.98,8.37,30.89.5,1.18,1,2.39,1.51,3.6-2.01-1.6-4-3.22-6.08-4.74-.54-.39-1.14-.17-1.46.24-9.8-9.29-16.65-21.97-28.26-29.49-12.57-8.15-29.73-10.02-41.52.58-.37.33-.64.97-.24,1.41,18.82,20.84,45.64,31.55,73.08,34.86,1.22.48,2.45.92,3.72,1.31.43.13.74-.03.93-.3.24.14.47.29.72.43.4.22.76.13,1.02-.1.86,1.72,2.61,3.54,3.92,4.9,3.9,4.06,5.38,5.5,9.35,7.2,2.2,2.22,4.34,4.52,6.43,6.84-23.68-14.71-55.4-19.7-77.63.67-.66.6-.49,1.57.4,1.82,25.38,7.2,51.79,3.89,77.44.03.38.25.77.49,1.15.75.49.33,1.03.17,1.37-.16,7.41,8.6,14.07,17.84,19.89,27.61.55,1.7,1.14,3.38,1.78,5.05-.19-.22-.35-.45-.54-.66-4.03-4.37-9.11-7.74-14.66-9.86-9.73-3.72-24.52-4.53-32.54,3.46-2.18,2.17-4.49,5.32-1.74,7.78,4.26,3.81,12.49,5.62,17.96,6.57,7.44,1.29,15.03.48,22.37,2.48,5.46,1.49,10.45,4.08,14.92,7.41.25.45.5.9.71,1.38.3.69,1.07.74,1.56.43,1.16.98,2.33,1.97,3.41,3.06.1.1.21.16.32.21,2.99,7.41,5.54,14.99,7.62,22.71-.02,4.35.88,8.71,2.45,12.77-.03,1.51.02,3.03.21,4.56-.43-.95-.89-1.9-1.39-2.82-2.76-5.17-6.12-10.21-10.08-14.54-7.13-7.79-16.95-13.11-27.73-11.48-.6.09-1.16.71-.87,1.35,4.48,10.07,10.91,18.73,19.07,26.11,8.45,7.65,17.84,14.25,24.64,23.52.09,1.68.16,3.36.2,5.04.09,3.52.9,11.31,2.54,14.75.56,1.17,4.38,2,3.68.9-2.23-3.57-3.23-3.84-3.18-7.53.05-3.74-1.02-8.48-1.2-12.21.37-.3.56-.82.2-1.32-.11-.15-.22-.29-.33-.43-.15-2.68-.31-5.35-.57-8.02-.36-3.57-.84-7.14-1.39-10.68,2.69-3.87,7.76-9.75,8.38-10.53,2.85-3.56,5.26-7.46,7.12-11.63,3.74-8.36,5.2-17.45,4.55-26.56-.07-1.04-1.46-1.22-1.92-.35-1.64,3.08-3.39,6.42-6.43,8.35-2.67,1.69-5.94,1.98-8.8,3.2-3.76,1.6-6.16,4.38-7.57,8.19-.48,1.3-.81,2.63-1.08,3.97-.21-.72-.39-1.45-.61-2.17-1.89-6.13-4.1-12.17-6.57-18.1.23-.38.26-.89-.16-1.28-.25-.23-.46-.5-.7-.74-.01-.02-.02-.05-.03-.07,4.81-11.94,6.39-24.39,3.87-37.14-2.7-13.67-9-26.28-15.23-38.62-.34-.68-1.17-.92-1.73-.3-7.91,8.84-6.34,23.47-4.94,34.3.55,4.23,1.38,8.39,2.42,12.5-4.62-7.18-9.64-14.09-15.14-20.61-3.04-3.6-6.25-7.04-9.54-10.41.06-.38-.08-.79-.56-.98-.27-.11-.52-.23-.78-.34-4.08-4.09-8.3-8.03-12.73-11.73-1.72-3.43-3.15-7.05-4.57-10.58-3.3-8.22-5.83-16.64-6.7-25.44,5.1-.18,7.89-11.06,9-14.48,1.66-5.1,2.09-12.34-4.5-13.86-14.73-3.4-15.38,20.21-6.97,26.89Zm79.6,156.72c.03.21.07.41.1.62-.17.27-.31.53-.46.79-.22-.59-.45-1.17-.71-1.74.26.32.69.42,1.07.34Zm.73,5.04c-.02-.07-.04-.14-.06-.21,0-.06.02-.14.04-.22.02.17.04.35.07.52-.03-.02-.04-.06-.06-.09Zm-39.61-32.88c11.74-1.09,21.55,6.35,28.3,15.47,3.61,4.88,7.27,10.37,8.95,16.24.05.17.07.33.12.5-.1.72.02,1.34.39,1.82.3,1.8.42,3.61.61,5.39-5.49-7.88-12.1-14.82-19.81-20.69-1.03-.79-2.33.76-1.29,1.55,7.75,5.91,14.37,12.9,19.84,20.86-4.8-4.96-10.2-9.32-15.48-13.83-9.11-7.77-16.54-16.47-21.62-27.32Zm40.71,41.89c-.41-2-.47-4.07-.67-6.13.25,2.04.48,4.08.67,6.13Zm4.08-47.9c3.57-1.56,7.44-1.85,10.56-4.39,1.66-1.35,2.9-3.11,4-4.95.07,11.41-3.37,22.67-10.3,31.85-.83,1.11-4.93,5.1-8.05,9.1-.26-.49-.52-1.02-.77-1.57-.23-1.25-.44-2.5-.7-3.74.66-7.4,3.97-14.34,9.62-19.48.95-.86-.2-2.53-1.17-1.65-4.8,4.37-8.1,9.91-9.64,15.96-.47-1.98-.95-3.94-1.47-5.9-.08-6.5,1.94-12.62,7.93-15.24Zm-44.11-22.75c-5.97-.76-11.99-.37-17.92-1.58-3.43-.7-6.78-1.75-10-3.13-1.19-.51-2.7-.97-3.74-1.77-3.24-2.48-1.55-4.32,1.01-6.47,9.26-7.75,25-5.34,34.69.11,5.13,2.89,9.47,6.99,12.61,11.97.97,1.53,1.85,3.1,2.74,4.64.8,1.61,1.63,3.2,2.51,4.77.19.35.48.46.77.44.36.5.74,1,1.13,1.48-.54-.44-1.08-.89-1.64-1.31-6.12-10.37-20.54-12.98-31.16-16.42-1.22-.4-2.09,1.43-.86,1.83,8.14,2.64,19.32,4.82,26.29,10.89-5.06-2.81-10.61-4.73-16.43-5.47Zm10.93-29.43c-1.51-10.24-3.42-24.56,3.26-33.46,5.41,10.73,10.74,21.66,13.63,33.37,3.16,12.79,2.21,25.41-2.31,37.58-1.13-2.52-2.3-5.03-3.53-7.5-1.13-8.73,2.73-18.32-2.43-26.42-.7-1.1-2.35.07-1.65,1.17,4.13,6.5,2.31,14.12,2.15,21.51-1.62-3.1-3.32-6.15-5.1-9.15-1.8-5.56-3.17-11.27-4.03-17.09ZM2.51,29.4c13.94-11.56,32.99-5.5,45.31,5.56,9.36,8.4,15.59,19.92,25.46,27.63-15.54-6.27-27.15-19.63-42.57-26.32-1.19-.52-2.05,1.31-.86,1.83,13.59,5.9,24.22,16.82,37.14,23.72C42.75,57.8,19.38,47.7,2.51,29.4Zm83.68,42.3s.07.07.11.1c-.04-.03-.07-.07-.11-.1Zm3.72,10.37c-11.42-2.83-23.17-3.42-34.92-1.62-1.28.2-1.13,2.21.16,2.01,13.88-2.13,27.85-.97,41.17,3.52-23.85,3.53-48.28,6.22-71.87.02,18.93-16.04,44.33-14.17,65.47-3.94ZM71.21,2.32c8.65-1.43,6.98,8.19,5.14,13.23-.79,2.17-3.28,10.73-6.53,11.05-.03-.46-.08-.91-.1-1.37-.05-1.06-1.37-1.14-1.84-.44-5.47-5.81-6.45-20.86,3.33-22.47Z"/>
  </g>
</svg>