<?xml version="1.0" encoding="UTF-8"?>
<svg id="Layer_2" data-name="Layer 2" xmlns="http://www.w3.org/2000/svg" xmlns:xlink="http://www.w3.org/1999/xlink" viewBox="0 0 84.69 74.29">
  <defs>
    <style>
      .cls-1 {
        fill: url(#Degradado_sin_nombre_37-5);
      }

      .cls-2 {
        fill: url(#Degradado_sin_nombre_37-4);
      }

      .cls-3 {
        fill: url(#Degradado_sin_nombre_37-2);
      }

      .cls-4 {
        fill: url(#Degradado_sin_nombre_37-3);
      }

      .cls-5 {
        fill: url(#Degradado_sin_nombre_37);
      }
    </style>
    <linearGradient id="Degradado_sin_nombre_37" data-name="Degradado sin nombre 37" x1="-5.98" y1="76.39" x2="109.26" y2=".22" gradientUnits="userSpaceOnUse">
      <stop offset=".17" stop-color="#310000"/>
      <stop offset=".45" stop-color="#800020"/>
    </linearGradient>
    <linearGradient id="Degradado_sin_nombre_37-2" data-name="Degradado sin nombre 37" x1="-26.44" y1="46.91" x2="89.81" y2="-29.94" xlink:href="#Degradado_sin_nombre_37"/>
    <linearGradient id="Degradado_sin_nombre_37-3" data-name="Degradado sin nombre 37" x1="-21.75" y1="52.81" x2="93.55" y2="-23.41" xlink:href="#Degradado_sin_nombre_37"/>
    <linearGradient id="Degradado_sin_nombre_37-4" data-name="Degradado sin nombre 37" x1="-25.29" y1="46.55" x2="89.21" y2="-29.14" xlink:href="#Degradado_sin_nombre_37"/>
    <linearGradient id="Degradado_sin_nombre_37-5" data-name="Degradado sin nombre 37" x1="-24.06" y1="48.99" x2="90.95" y2="-27.03" xlink:href="#Degradado_sin_nombre_37"/>
  </defs>
  <g id="Iconos">
    <g>
      <path class="cls-5" d="m84.69,65.52c-8.34,2.94-16.61,5.85-24.87,8.75-.6-.78-.36-1.4.3-1.82,1.21-.76,2.45-1.49,3.74-2.11,1.36-.66,2.77-1.2,4.18-1.74.91-.35,1.25-.87.99-1.85-1.95-7.38-4.51-14.54-7.71-21.47-.31-.67-.66-.8-1.35-.67-5.48,1.01-9.69-.96-12.8-5.4-2.3-3.29-3.53-7.02-4.45-10.86-.09-.39-.19-.77-.5-1.21-.1.42-.21.83-.31,1.25-.83,3.53-1.96,6.94-3.92,10.04-2.05,3.25-4.74,5.73-8.74,6.27-1.8.24-3.66.04-5.79.04-1.48,3.68-3.16,7.56-4.59,11.52-1.23,3.42-2.15,6.95-3.24,10.43-.32,1.01.05,1.52,1,1.94,2.49,1.1,4.96,2.24,7.39,3.46.76.38,1.56.99.84,2.2-8.28-2.92-16.57-5.83-24.86-8.75.09-1.25.95-1.39,1.82-1.21,2.24.44,4.5.86,6.68,1.51,3.2.95,2.86.93,4.12-1.82,2.96-6.45,5.34-13.09,7.17-19.93.13-.49.33-.92-.36-1.26-5.86-2.93-7.59-8.25-6.32-14.63,1.1-5.52,3.75-10.39,6.81-15.06,1.2-1.83,2.59-3.54,3.85-5.33.45-.64.89-.74,1.65-.47,5.31,1.91,10.62,3.78,15.96,5.61.56.19,1.31.19,1.88,0,5.37-1.84,10.71-3.75,16.07-5.64.46-.16.83-.34,1.25.18,4.76,6.01,8.84,12.38,10.76,19.88.65,2.53.82,5.11.23,7.68-.8,3.49-2.92,5.99-6.09,7.63-.68.35-.85.67-.64,1.43,1.96,7.26,4.54,14.3,7.73,21.12.59,1.26.87,1.35,2.22,1,2.6-.67,5.21-1.34,7.84-1.9,1.25-.27,1.66.04,2.06,1.18ZM19.24,18.47c.1.09.19.18.29.27,4.96-1.28,9.39-.1,13.58,2.6,1.08.7,2.39,1.17,3.66,1.45,1.82.41,3.93-.92,4.12-2.46.17-1.41.23-2.83.23-4.24,0-.34-.37-.88-.7-1-4.81-1.75-9.64-3.45-14.48-5.12-.29-.1-.87,0-1.02.22-1.92,2.74-3.79,5.52-5.67,8.28Zm24.64,3.74c.4-.32.57-.45.74-.58,4.15-3.51,8.59-4.63,13.62-1.76,1.6.91,3.39,1.52,5.29,1.35.9-.08,1.77-.45,2.65-.69.05-.15.1-.3.16-.46-2.18-3.28-4.35-6.57-6.57-9.81-.17-.24-.84-.35-1.18-.23-4.74,1.63-9.45,3.32-14.2,4.94-.74.25-.98.63-.92,1.34.15,1.88.26,3.76.41,5.9Z"/>
      <path class="cls-3" d="m33.83,2.88c.46.27.85.4,1.13.66,1.01.95,2,1.93,2.97,2.92.64.65.69,1.57.1,2.02-.68.52-1.36.44-1.98-.17-1.01-1-2.09-1.95-3.01-3.03-.31-.36-.38-1.07-.26-1.55.08-.33.66-.55,1.05-.85Z"/>
      <path class="cls-4" d="m52.22,4.23c-.26.45-.4.84-.66,1.11-.99,1.03-2.01,2.02-3.03,3.01-.62.6-1.36.66-1.96.06-.61-.61-.5-1.33.1-1.94,1-1.01,1.98-2.06,3.07-2.97.37-.31,1.08-.4,1.58-.3.34.07.58.64.9,1.02Z"/>
      <path class="cls-2" d="m39.62,0c.19.21.72.55.88,1.01.47,1.37.82,2.78,1.16,4.19.19.79,0,1.48-.93,1.68-.87.19-1.4-.22-1.62-1.06-.36-1.37-.77-2.72-1.11-4.1C37.76.72,38.32-.01,39.62,0Z"/>
      <path class="cls-1" d="m46.84,1.07c-.53,1.9-.92,3.56-1.51,5.16-.13.35-1,.7-1.42.6-.4-.1-.99-.84-.92-1.19.31-1.67.74-3.33,1.3-4.93.12-.35.98-.68,1.43-.61.44.07.79.66,1.12.98Z"/>
    </g>
  </g>
</svg>