<?xml version="1.0" encoding="UTF-8"?>
<svg id="Layer_2" data-name="Layer 2" xmlns="http://www.w3.org/2000/svg" viewBox="0 0 52.14 52.14">
  <defs>
    <style>
      .cls-1 {
        fill: #fff;
      }

      .cls-2 {
        fill: #023378;
        stroke: #fff;
        stroke-miterlimit: 10;
        stroke-width: 2px;
      }
    </style>
  </defs>
  <g id="Capa_6" data-name="Capa 6">
    <circle class="cls-2" cx="26.07" cy="26.07" r="25.07"/>
    <g>
      <path class="cls-1" d="m9.05,43.22c.21-.61.4-1.18.59-1.75.78-2.32,1.56-4.64,2.33-6.96.04-.12.03-.31-.03-.42-1.19-2.06-1.95-4.27-2.17-6.64-.51-5.4,1.16-10.04,5.02-13.83,2.71-2.66,6-4.16,9.78-4.59,7.66-.86,15.06,3.79,17.56,11.07,1.45,4.24,1.32,8.45-.59,12.51-2.42,5.14-6.48,8.33-12.06,9.45-3.84.77-7.52.16-10.99-1.66-.12-.06-.31-.08-.45-.04-2.89.92-5.77,1.84-8.66,2.77-.09.03-.18.05-.32.09Zm4.28-4.22c.17-.05.27-.08.37-.11,1.58-.5,3.15-1,4.73-1.51.18-.06.31-.04.48.06,2.87,1.79,5.99,2.5,9.35,2.02,4.34-.62,7.69-2.85,10-6.55,1.87-3.01,2.45-6.32,1.81-9.8-1.77-9.53-12.5-14.43-20.8-9.44-4.35,2.62-6.64,6.57-6.84,11.65-.12,2.96.71,5.69,2.4,8.15.18.27.21.49.11.79-.51,1.47-1,2.95-1.5,4.42-.03.09-.05.18-.1.34Z"/>
      <path class="cls-1" d="m30.62,34.01c1.12-.05,1.97-.29,2.78-.75,1.12-.64,1.53-1.63,1.62-2.84.03-.34-.11-.56-.41-.71-.78-.41-1.55-.83-2.33-1.24-.37-.19-.74-.38-1.12-.54-.35-.15-.54-.07-.78.21-.36.43-.73.87-1.11,1.29-.64.72-.65.71-1.53.3-2.33-1.09-4.07-2.81-5.3-5.05-.26-.48-.22-.62.14-1.02.38-.43.73-.88,1.08-1.34.18-.23.16-.5.05-.77-.29-.76-.57-1.53-.86-2.3-.15-.4-.3-.81-.46-1.21-.13-.32-.36-.5-.73-.49-.23,0-.47-.02-.7-.05-.45-.06-.85.05-1.18.34-.73.63-1.28,1.38-1.56,2.32-.41,1.37-.2,2.69.36,3.97.58,1.32,1.39,2.5,2.26,3.64,1.15,1.53,2.47,2.88,4.08,3.94,1.39.92,2.95,1.49,4.52,2.02.44.15.9.22,1.17.29Z"/>
      <path class="cls-1" d="m30.62,34.01c-.27-.06-.73-.14-1.17-.29-1.57-.53-3.13-1.09-4.52-2.02-1.6-1.06-2.93-2.41-4.08-3.94-.86-1.14-1.68-2.32-2.26-3.64-.56-1.28-.77-2.6-.36-3.97.28-.94.83-1.69,1.56-2.32.34-.29.74-.4,1.18-.34.23.03.47.05.7.05.37-.01.6.18.73.49.17.4.31.8.46,1.21.29.77.57,1.54.86,2.3.1.27.12.54-.05.77-.35.46-.7.91-1.08,1.34-.36.41-.41.54-.14,1.02,1.23,2.25,2.97,3.96,5.3,5.05.88.41.89.42,1.53-.3.38-.42.74-.86,1.11-1.29.24-.29.43-.36.78-.21.38.16.75.35,1.12.54.78.41,1.55.84,2.33,1.24.3.16.43.37.41.71-.09,1.21-.5,2.2-1.62,2.84-.81.46-1.67.7-2.78.75Z"/>
    </g>
  </g>
</svg>